<svg width="323" height="212" viewBox="0 0 323 212" fill="none" xmlns="http://www.w3.org/2000/svg">
<path d="M238.5 89.6838L221.423 98.0482L245 86.5L238.5 89.6838Z" fill="#94A697"/>
<path d="M150.836 140.833H126.052C125 146 125 149 126.052 154.917H196.906C196.906 154.917 197.5 154.917 197.5 148C197.5 140.958 196.92 140.833 196.92 140.833H166.45L150.513 98.0482H221.423L238.5 89.6838L245 86.5L243.679 83.7958L218.179 13.9707C216.56 9.67056 213.906 6.26709 210.218 3.76025C206.53 1.25342 202.453 0 197.988 0H175.521C173.536 0 171.87 0.671307 170.522 2.01392C169.174 3.35653 168.5 5.02775 168.5 7.02758C168.5 9.02742 169.174 10.7033 170.522 12.0553C171.87 13.4073 173.536 14.0833 175.521 14.0833H197.988C199.607 14.0833 201.049 14.4871 202.312 15.2945C203.567 16.1113 204.465 17.3319 205.008 18.9562L228.612 83.9648H145.542L135.783 56.3333H147.438C149.431 56.3333 151.098 55.662 152.436 54.3194C153.784 52.9768 154.458 51.3056 154.458 49.3058C154.458 47.3059 153.784 45.63 152.436 44.278C151.098 42.926 149.431 42.25 147.438 42.25H105.312C103.328 42.25 101.662 42.9213 100.314 44.2639C98.9657 45.6065 98.2917 47.2778 98.2917 49.2776C98.2917 51.2774 98.9657 52.9533 100.314 54.3053C101.652 55.6573 103.319 56.3333 105.312 56.3333H120.702L150.836 140.833Z" fill="#94A697"/>
</svg>
