<svg width="323" height="212" viewBox="0 0 323 212" fill="none" xmlns="http://www.w3.org/2000/svg">
<path fill-rule="evenodd" clip-rule="evenodd" d="M126.052 140.833H150.836L120.702 56.3333H105.312C103.319 56.3333 101.652 55.6573 100.314 54.3053C98.9657 52.9533 98.2917 51.2774 98.2917 49.2776C98.2917 47.2778 98.9657 45.6065 100.314 44.2639C101.662 42.9213 103.328 42.25 105.312 42.25H147.438C149.431 42.25 151.098 42.926 152.436 44.278C153.784 45.63 154.458 47.3059 154.458 49.3058C154.458 51.3056 153.784 52.9768 152.436 54.3194C151.098 55.662 149.431 56.3333 147.438 56.3333H135.783L145.542 83.9648H228.612L205.008 18.9562C204.465 17.3319 203.567 16.1113 202.312 15.2945C201.049 14.4871 199.607 14.0833 197.988 14.0833H175.521C173.536 14.0833 171.87 13.4073 170.522 12.0553C169.174 10.7033 168.5 9.02742 168.5 7.02758C168.5 5.02775 169.174 3.35653 170.522 2.01392C171.87 0.671307 173.536 0 175.521 0H197.988C202.453 0 206.53 1.25342 210.218 3.76025C213.906 6.26709 216.56 9.67056 218.179 13.9707L243.679 83.7958L237.671 87.6433L221.423 98.0482H150.513L166.45 140.833H196.92C196.92 140.833 197.5 140.958 197.5 148C197.5 154.917 196.906 154.917 196.906 154.917H126.052C125 149 125 146 126.052 140.833Z" fill="#94A697"/>
<path d="M245 86.5L243.679 83.7958L237.671 87.6433L245 86.5Z" fill="#94A697"/>
<path d="M237.671 87.6433L221.423 98.0482L245 86.5L237.671 87.6433Z" fill="#94A697"/>
</svg>
