<svg width="323" height="212" viewBox="0 0 323 212" fill="none" xmlns="http://www.w3.org/2000/svg">
<path d="M63.3347 211.625C45.3988 211.625 30.3602 205.55 18.2188 193.401C6.08683 181.261 0.0208282 166.211 0.0208282 148.25C0.0208282 130.646 6.18044 115.591 18.4997 103.085C30.8282 90.5881 45.7311 84.3398 63.2083 84.3398C79.2439 84.3398 93.2715 89.7854 105.291 100.676C117.311 111.558 124.238 125.069 126.073 141.208H150.856L120.723 56.7083H105.333C103.339 56.7083 101.673 56.0323 100.334 54.6803C98.9865 53.3283 98.3125 51.6524 98.3125 49.6526C98.3125 47.6527 98.9865 45.9815 100.334 44.6389C101.682 43.2963 103.349 42.625 105.333 42.625H147.458C149.452 42.625 151.119 43.301 152.457 44.653C153.805 46.005 154.479 47.6809 154.479 49.6808C154.479 51.6806 153.805 53.3518 152.457 54.6944C151.119 56.037 149.452 56.7083 147.458 56.7083H135.804L145.563 84.3398H228.633L205.029 19.3312C204.486 17.7069 203.588 16.4863 202.333 15.6695C201.069 14.8621 199.628 14.4583 198.008 14.4583H175.542C173.557 14.4583 171.891 13.7823 170.543 12.4303C169.195 11.0783 168.521 9.40242 168.521 7.40258C168.521 5.40275 169.195 3.73153 170.543 2.38892C171.891 1.04631 173.557 0.375 175.542 0.375H198.008C202.474 0.375 206.55 1.62842 210.239 4.13525C213.927 6.64209 216.581 10.0456 218.2 14.3457L243.7 84.1708H259.792C277.278 84.1708 292.181 90.3487 304.5 102.704C316.82 115.06 322.979 130.007 322.979 147.546C322.979 165.159 316.824 180.153 304.514 192.528C292.195 204.903 277.288 211.09 259.792 211.09C243.662 211.09 229.714 205.762 217.948 195.105C206.181 184.449 199.174 171.178 196.927 155.292H126.073C124.238 171.488 117.227 184.928 105.038 195.612C92.8503 206.297 78.949 211.634 63.3347 211.625ZM111.708 155.292V141.208H77.25C75.2561 141.208 73.5898 141.884 72.2512 143.236C70.9032 144.588 70.2292 146.264 70.2292 148.264C70.2292 150.264 70.9032 151.935 72.2512 153.278C73.5992 154.62 75.2654 155.292 77.25 155.292H111.708ZM166.471 141.208H196.941C197.746 134.73 200.133 127.111 204.102 118.351C208.072 109.591 213.852 102.949 221.444 98.4232H150.533L166.471 141.208ZM236.188 105.014L247.589 137.364C248.179 139.194 249.396 140.509 251.24 141.307C253.084 142.105 254.891 142.161 256.66 141.476C258.42 140.791 259.717 139.546 260.55 137.744C261.374 135.941 261.444 134.157 260.761 132.392L248.671 100.043L236.188 105.014Z" fill="white" fill-opacity="0.53"/>
</svg>
