<svg width="127" height="128" viewBox="0 0 127 128" fill="none" xmlns="http://www.w3.org/2000/svg">
<path fill-rule="evenodd" clip-rule="evenodd" d="M18.198 109.061C30.3394 121.211 45.378 127.285 63.3139 127.285C78.9282 127.295 92.8295 121.957 105.018 111.272C117.206 100.588 124.217 87.1477 126.052 70.9518C126.052 70.9518 126.052 70.9518 126.343 68.433C126.51 63.933 126.3 68.433 126.5 63.933C126.5 63.933 126.51 63.933 126.343 60.433C126.052 56.8685 126.052 56.8685 126.052 56.8685C124.217 40.729 117.29 27.2184 105.27 16.3367C93.2507 5.44555 79.2231 0 63.1875 0C45.7103 0 30.8074 6.24831 18.4788 18.7449C6.15961 31.2509 0 46.306 0 63.9102C0 81.8711 6.066 96.9215 18.198 109.061ZM77.2292 56.8685H111.687V70.9518H77.2292C75.2446 70.9518 73.5783 70.2805 72.2303 68.9379C70.8823 67.5953 70.2083 65.9241 70.2083 63.9243C70.2083 61.9244 70.8823 60.2485 72.2303 58.8965C73.569 57.5445 75.2352 56.8685 77.2292 56.8685Z" fill="#94A697"/>
</svg>
