<svg width="128" height="128" viewBox="0 0 128 128" fill="none" xmlns="http://www.w3.org/2000/svg">
<path fill-rule="evenodd" clip-rule="evenodd" d="M122.404 89.8653C129.395 74.1765 129.677 57.9598 123.249 41.2152C117.662 26.6346 107.697 15.5695 93.3547 8.01982C79.012 0.470195 63.9518 -1.25903 48.1741 2.83212C48.1741 2.83212 48.1741 2.83212 45.7184 3.46307C41.4574 4.91988 45.7338 3.50328 41.461 4.92921C41.461 4.92921 41.4574 4.91988 38.2497 6.33001C35.0262 7.87913 35.0262 7.87913 35.0262 7.87913C20.6162 15.3759 10.4855 26.6848 4.63398 41.8058C-1.22629 56.9301 -1.28309 71.9776 4.46354 86.9481C10.7268 103.264 21.9008 114.938 37.9856 121.97C54.0757 128.989 70.3383 129.344 86.7732 123.035C103.541 116.599 115.418 105.542 122.404 89.8653ZM52.5228 53.4592L40.174 21.2897L53.322 16.2426L65.6707 48.4122C66.3819 50.2649 66.3523 52.0611 65.582 53.8007C64.8116 55.5403 63.4929 56.7685 61.6259 57.4852C59.7589 58.2018 57.9528 58.1732 56.2075 57.3992C54.4656 56.634 53.2373 55.3207 52.5228 53.4592Z" fill="#94A697"/>
</svg>
